<mxfile host="app.diagrams.net" modified="2023-07-27T00:00:24.758Z" agent="Mozilla/5.0 (Macintosh; Intel Mac OS X 10_15_7) AppleWebKit/537.36 (KHTML, like Gecko) Chrome/113.0.0.0 Safari/537.36" version="21.6.5" etag="h0YHV3-VoFwO_J2wSG32" type="github">
  <diagram name="PÃ¡gina-1" id="ziMSc9ZiG6M0TnIhPRJV">
    <mxGraphModel>
      <root>
        <mxCell id="0" />
        <mxCell id="1" parent="0" />
      </root>
    </mxGraphModel>
  </diagram>
</mxfile>
